<svg width="313" height="312" viewBox="0 0 313 312" fill="none" xmlns="http://www.w3.org/2000/svg">
<g opacity="0.05">
<path fill-rule="evenodd" clip-rule="evenodd" d="M159.974 0C184.604 0 204.63 20.0259 204.63 44.6554C204.63 69.2849 184.604 89.3107 159.974 89.3107C135.345 89.3107 115.319 69.2849 115.319 44.6554C115.319 20.0259 135.345 0 159.974 0Z" fill="white"/>
<path fill-rule="evenodd" clip-rule="evenodd" d="M156.522 262.868C153.759 203.481 135.805 102.891 53.8602 32.6853L58.0035 84.4763C105.881 133.045 136.266 194.734 149.846 268.622H149.616C138.107 215.91 106.112 126.6 16.5707 69.5145L19.3329 120.155C76.4181 159.286 116.009 205.782 142.941 274.837H142.711C124.526 232.944 84.0141 166.191 0.918274 127.29L3.91064 181.383C78.7199 211.077 103.119 236.397 155.371 311.666H158.133C163.427 303.84 168.491 296.935 173.325 290.259V290.029C215.909 231.103 242.38 208.084 309.363 181.383L312.355 127.29C229.72 166.191 189.207 232.944 171.253 274.837H171.023C197.954 205.782 237.546 159.286 294.631 120.155L297.393 69.5145C207.622 126.6 175.627 215.91 164.348 268.852H164.118C177.698 194.734 208.082 133.275 255.96 84.7065L260.104 32.9155C178.159 102.891 160.204 203.481 157.442 262.868H156.522Z" fill="white"/>
</g>
</svg>
