<svg width="48" height="48" viewBox="0 0 48 48" fill="none" xmlns="http://www.w3.org/2000/svg">
<path d="M11.272 36.728C9.6005 35.0565 8.27461 33.0722 7.37001 30.8883C6.46541 28.7044 5.99982 26.3638 5.99982 24C5.99982 21.6362 6.46541 19.2955 7.37001 17.1116C8.27461 14.9277 9.6005 12.9434 11.272 11.272M36.728 11.272C38.3995 12.9434 39.7253 14.9277 40.6299 17.1116C41.5345 19.2955 42.0001 21.6362 42.0001 24C42.0001 26.3638 41.5345 28.7044 40.6299 30.8883C39.7253 33.0722 38.3995 35.0565 36.728 36.728M16.928 31.07C15.0533 29.1947 14.0001 26.6516 14.0001 24C14.0001 21.3483 15.0533 18.8052 16.928 16.93M31.072 16.93C32.9467 18.8052 33.9998 21.3483 33.9998 24C33.9998 26.6516 32.9467 29.1947 31.072 31.07M26 24C26 24.5304 25.7893 25.0391 25.4142 25.4142C25.0391 25.7893 24.5304 26 24 26C23.4695 26 22.9608 25.7893 22.5858 25.4142C22.2107 25.0391 22 24.5304 22 24C22 23.4695 22.2107 22.9608 22.5858 22.5858C22.9608 22.2107 23.4695 22 24 22C24.5304 22 25.0391 22.2107 25.4142 22.5858C25.7893 22.9608 26 23.4695 26 24Z" stroke="#FB4B50" stroke-width="3" stroke-linecap="round" stroke-linejoin="round"/>
</svg>
