<svg width="34" height="34" viewBox="0 0 34 34" fill="none" xmlns="http://www.w3.org/2000/svg">
<path d="M3.66947 3.67226L3.66946 3.67225C2.80854 4.52715 2.28833 5.38095 1.88829 6.39879C1.50622 7.38774 1.23362 8.52624 1.1587 10.224L3.66947 3.67226ZM3.66947 3.67226L3.67225 3.66946M3.66947 3.67226L3.67225 3.66946M3.67225 3.66946C4.5273 2.80838 5.38108 2.2883 6.40526 1.88828M3.67225 3.66946L6.40526 1.88828M3.66946 30.3471L3.67086 30.3485C4.52798 31.2056 5.38269 31.7315 6.39752 32.1241C7.3868 32.5065 8.52559 32.7793 10.2242 32.8542C11.9725 32.9311 12.5241 32.9504 17.0032 32.9504C21.4823 32.9504 22.0339 32.9311 23.7822 32.8542C25.4816 32.7792 26.6263 32.5062 27.608 32.1245L27.6089 32.1241C28.6238 31.7315 29.4785 31.2056 30.3356 30.3485C31.1927 29.4914 31.7186 28.6367 32.1112 27.6218C32.4936 26.6325 32.7664 25.4938 32.8413 23.7951C32.9182 22.0468 32.9375 21.4952 32.9375 17.0161C32.9375 12.537 32.9182 11.9854 32.8413 10.2371C32.7663 8.53776 32.4933 7.39302 32.1116 6.41132L32.1083 6.40294L32.1084 6.40291C31.7289 5.37892 31.211 4.52734 30.3499 3.67225L30.3485 3.67086C29.4914 2.81374 28.6367 2.28787 27.6218 1.89523C26.6325 1.51289 25.4938 1.24008 23.7951 1.16514L23.7933 1.16506C22.0396 1.08185 21.489 1.0625 17.0097 1.0625C12.5306 1.0625 11.979 1.08184 10.2307 1.15869L3.66946 30.3471ZM3.66946 30.3471C2.8084 29.4921 2.28832 28.6383 1.88831 27.6141M3.66946 30.3471L1.88831 27.6141M1.88831 27.6141C1.50661 26.6325 1.23366 25.4879 1.15869 23.7888L1.88831 27.6141ZM17.0097 2.91053C21.4237 2.91053 21.9559 2.92988 23.7028 3.00781L17.0097 2.91053ZM17.0097 2.91053C12.5956 2.91053 12.0634 2.92989 10.3165 3.00782L17.0097 2.91053ZM26.9449 3.61291C27.7845 3.93757 28.4055 4.3417 29.0351 4.97132C29.6716 5.60775 30.0691 6.22241 30.3936 7.06162M26.9449 3.61291L30.4367 10.3284L30.9986 10.3036C30.9249 8.63517 30.6409 7.69774 30.3936 7.06162M26.9449 3.61291C26.3091 3.36568 25.3782 3.08156 23.7031 3.00783L26.9449 3.61291ZM30.3936 7.06162C30.3937 7.06184 30.3937 7.06206 30.3938 7.06228L29.8692 7.2651L30.3934 7.06122C30.3935 7.06135 30.3935 7.06148 30.3936 7.06162ZM30.3936 26.9318C30.6408 26.296 30.9249 25.365 30.9986 23.6902L28.6374 28.6245C28.057 29.2049 27.5088 29.5596 26.7414 29.8563C26.1609 30.082 25.2839 30.3528 23.678 30.4238M30.3936 26.9318C30.3936 26.9319 30.3935 26.9321 30.3934 26.9323L29.8692 26.7285L30.3938 26.9313C30.3938 26.9314 30.3937 26.9316 30.3936 26.9318ZM30.3936 26.9318C30.069 27.7715 29.6648 28.3926 29.0351 29.0222C28.3987 29.6587 27.784 30.0562 26.9447 30.3807M26.9447 30.3807C26.9449 30.3807 26.945 30.3806 26.9452 30.3805L26.7415 29.8567L26.9442 30.3809C26.9443 30.3809 26.9445 30.3808 26.9447 30.3807ZM26.9447 30.3807C26.3086 30.6281 25.3712 30.912 23.703 30.9857M23.703 30.9857L23.678 30.4238M23.703 30.9857C21.9495 31.0637 21.4176 31.083 17.0097 31.083C12.5954 31.083 12.0634 31.0637 10.3162 30.9857M23.703 30.9857C23.703 30.9857 23.7029 30.9857 23.7029 30.9857L23.678 30.4238M23.678 30.4238L10.3162 30.9857M10.3162 30.9857L10.3413 30.4239L10.3166 30.9857C10.3165 30.9857 10.3164 30.9857 10.3162 30.9857ZM3.62576 26.9319C3.95025 27.7711 4.34777 28.3858 4.98421 29.0222C5.61387 29.6519 6.23489 30.056 7.07461 30.3807L3.62552 26.9313C3.6256 26.9315 3.62568 26.9317 3.62576 26.9319ZM3.62576 26.9319C3.37842 26.2958 3.09443 25.3584 3.02072 23.6901L3.62576 26.9319ZM3.62572 7.06177C3.37851 7.69758 3.09445 8.62848 3.02072 10.3033L3.62572 7.06177ZM3.62572 7.06177C3.95039 6.22202 4.35454 5.60099 4.98421 4.97132C5.62069 4.33484 6.23539 3.93731 7.07467 3.61282C7.71076 3.3655 8.64812 3.08154 10.3162 3.00783L3.62572 7.06177ZM6.40526 1.88828C7.38686 1.50659 8.5315 1.23366 10.2306 1.15869L6.40526 1.88828ZM27.8119 32.6487C26.7672 33.055 25.5612 33.3388 23.807 33.4162C22.0464 33.4935 21.4853 33.5129 17.0032 33.5129C12.5211 33.5129 11.96 33.4935 10.1994 33.4162C8.44528 33.3388 7.24575 33.055 6.19455 32.6487H27.8119ZM2.92343 16.9968C2.92343 21.4045 2.94279 21.9366 3.02071 23.69L3.02071 10.3037C2.94278 12.0505 2.92343 12.5828 2.92343 16.9968ZM1.0625 17.0097C1.0625 12.5307 1.08184 11.979 1.15869 10.2242V23.7887C1.08184 22.0404 1.0625 21.4888 1.0625 17.0097ZM9.09162 17.0097C9.09162 12.6383 12.6383 9.09162 17.0097 9.09162C21.3811 9.09162 24.9277 12.6383 24.9277 17.0097C24.9277 21.3811 21.3811 24.9277 17.0097 24.9277C12.6383 24.9277 9.09162 21.3811 9.09162 17.0097ZM10.9461 17.0097C10.9461 20.3579 13.6615 23.0732 17.0097 23.0732C20.3579 23.0732 23.0732 20.3579 23.0732 17.0097C23.0732 13.6615 20.3579 10.9461 17.0097 10.9461C13.6615 10.9461 10.9461 13.6615 10.9461 17.0097ZM27.243 8.19379C27.243 8.97828 26.606 9.61116 25.8256 9.61116C25.0411 9.61116 24.4082 8.97422 24.4082 8.19379C24.4082 7.40929 25.0452 6.77641 25.8256 6.77641C26.6048 6.77641 27.243 7.41455 27.243 8.19379Z" fill="white" stroke="white" stroke-width="1.125"/>
</svg>
