<svg width="36" height="36" viewBox="0 0 36 36" fill="none" xmlns="http://www.w3.org/2000/svg">
<g clip-path="url(#clip0_7449_1935)">
<path d="M30.1148 21.2484V30.1148H25.9031V22.3242C25.9031 21.3544 25.9016 20.1015 25.5035 19.0933C25.298 18.5729 24.9773 18.0889 24.4762 17.7389C23.974 17.3881 23.3387 17.2055 22.5633 17.2055C21.7957 17.2055 21.1499 17.3559 20.6187 17.6507C20.0844 17.9473 19.6998 18.3714 19.4292 18.8637C18.9026 19.8218 18.8016 21.0521 18.8016 22.1836V30.1148H14.5969V14.0555H18.5906V15.8414V16.4039H19.1531H19.2234H19.5631L19.7213 16.1033C20.3387 14.9295 21.8958 13.6266 24.2719 13.6266C26.8368 13.6266 28.2301 14.4583 29.0264 15.7213C29.8603 17.0438 30.1148 18.9475 30.1148 21.2484ZM10.118 14.0555V30.1148H5.89922V14.0555H10.118ZM8.00859 10.5891C6.6028 10.5891 5.47031 9.45491 5.47031 8.05781C5.47031 6.66071 6.6028 5.52656 8.00859 5.52656C9.40653 5.52656 10.5398 6.65988 10.5398 8.05781C10.5398 9.44955 9.4057 10.5891 8.00859 10.5891Z" fill="white" stroke="white" stroke-width="1.125"/>
</g>
<defs>
<clipPath id="clip0_7449_1935">
<rect width="36" height="36" fill="white"/>
</clipPath>
</defs>
</svg>
