<svg width="48" height="48" viewBox="0 0 48 48" fill="none" xmlns="http://www.w3.org/2000/svg">
<path d="M18 40L7.106 34.552C6.77384 34.386 6.49444 34.1308 6.2991 33.8151C6.10377 33.4993 6.0002 33.1353 6 32.764V11.236C6.00018 10.8952 6.08744 10.5601 6.25349 10.2625C6.41954 9.96495 6.65888 9.71473 6.94879 9.53561C7.2387 9.35649 7.56957 9.25443 7.91001 9.23909C8.25045 9.22376 8.58916 9.29567 8.894 9.448L18 14M18 40V14M18 40L30 34M18 14L30 8M30 34L39.106 38.552C39.4108 38.7043 39.7496 38.7762 40.09 38.7609C40.4304 38.7456 40.7613 38.6435 41.0512 38.4644C41.3411 38.2853 41.5805 38.035 41.7465 37.7375C41.9126 37.4399 41.9998 37.1048 42 36.764V15.236C41.9998 14.8647 41.8962 14.5007 41.7009 14.1849C41.5056 13.8692 41.2262 13.614 40.894 13.448L30 8M30 34V8" stroke="#FB4B50" stroke-width="3" stroke-linecap="round" stroke-linejoin="round"/>
</svg>
