<svg width="30" height="30" viewBox="0 0 30 30" fill="none" xmlns="http://www.w3.org/2000/svg">
<path d="M4.48223 4.48223C4.01339 4.95107 3.75 5.58696 3.75 6.25V7.5C3.75 17.855 12.145 26.25 22.5 26.25H23.75C24.413 26.25 25.0489 25.9866 25.5178 25.5178C25.9866 25.0489 26.25 24.413 26.25 23.75V19.6512C26.2501 19.3888 26.1675 19.133 26.0141 18.9201C25.8606 18.7071 25.644 18.5479 25.395 18.465L19.7787 16.5925C19.4933 16.4976 19.1833 16.5088 18.9054 16.6241C18.6276 16.7394 18.4007 16.9509 18.2662 17.22L16.8538 20.0413C13.7931 18.6584 11.3416 16.2069 9.95875 13.1462L12.78 11.7338C13.0491 11.5993 13.2606 11.3724 13.3759 11.0946C13.4912 10.8167 13.5024 10.5067 13.4075 10.2213L11.535 4.605C11.4521 4.3562 11.2931 4.13975 11.0804 3.98631C10.8678 3.83287 10.6122 3.7502 10.35 3.75H6.25C5.58696 3.75 4.95107 4.01339 4.48223 4.48223Z" stroke="#FB4B50" stroke-width="1.875" stroke-linecap="round" stroke-linejoin="round"/>
</svg>
