<svg width="36" height="36" viewBox="0 0 36 36" fill="none" xmlns="http://www.w3.org/2000/svg">
<path fill-rule="evenodd" clip-rule="evenodd" d="M32.7437 8.5219C33.2557 9.0372 33.6234 9.67794 33.81 10.38C34.5 12.9712 34.5 18.375 34.5 18.375C34.5 18.375 34.5 23.7787 33.81 26.37C33.6234 27.0721 33.2557 27.7128 32.7437 28.2281C32.2317 28.7434 31.5933 29.1152 30.8925 29.3062C28.3125 30 18 30 18 30C18 30 7.6875 30 5.1075 29.3062C4.40665 29.1152 3.76828 28.7434 3.25627 28.2281C2.74426 27.7128 2.37657 27.0721 2.19 26.37C1.5 23.7787 1.5 18.375 1.5 18.375C1.5 18.375 1.5 12.9712 2.19 10.38C2.37657 9.67794 2.74426 9.0372 3.25627 8.5219C3.76828 8.0066 4.40665 7.63481 5.1075 7.44375C7.6875 6.75 18 6.75 18 6.75C18 6.75 28.3125 6.75 30.8925 7.44375C31.5933 7.63481 32.2317 8.0066 32.7437 8.5219ZM23.25 18.375L14.625 13.4682V23.2819L23.25 18.375Z" fill="white"/>
</svg>
