<svg width="534" height="534" viewBox="0 0 534 534" fill="none" xmlns="http://www.w3.org/2000/svg">
<g opacity="0.05">
<path fill-rule="evenodd" clip-rule="evenodd" d="M266.44 450.108C261.71 348.42 230.967 176.18 90.6525 55.967L97.747 144.649C179.728 227.813 231.755 333.443 255.009 459.962H254.615C234.908 369.704 180.123 216.777 26.8016 119.03L31.5313 205.741C129.278 272.745 197.071 352.361 243.185 470.604H242.791C211.654 398.87 142.285 284.569 0 217.959L5.12384 310.582C133.22 361.427 174.999 404.782 264.469 533.666H269.199C278.264 520.266 286.935 508.441 295.212 497.011V496.617C368.128 395.717 413.454 356.303 528.149 310.582L533.273 217.959C391.776 284.569 322.408 398.87 291.665 470.604H291.27C337.385 352.361 405.177 272.745 502.924 205.741L507.654 119.03C353.939 216.777 299.153 369.704 279.84 460.356H279.446C302.701 333.443 354.727 228.207 436.709 145.043L443.803 56.3612C303.489 176.18 272.746 348.42 268.016 450.108H266.44Z" fill="#13233E"/>
<path fill-rule="evenodd" clip-rule="evenodd" d="M272.352 0C314.525 0 348.815 34.2903 348.815 76.4634C348.815 118.637 314.525 152.927 272.352 152.927C230.179 152.927 195.888 118.637 195.888 76.4634C195.888 34.2903 230.179 0 272.352 0Z" fill="#13233E"/>
</g>
</svg>
